# xmcd
#
# Track frame offsets:
# 150
# 28099
# 45886
# 56744
# 70094
# 81080
# 96523
# 108855
# 138566
# 149498
# 160788
# 174586
# 186449
# 198348
#
# Disc length: 2902 seconds
#
#
# Revision: 0
# Processed by: cddbd v1.5.2PL0 Copyright (c) Steve Scherf et al.
# Submitted via: FreeRIP 2.96 
#
DISCID=c50b540e
DTITLE=Yardbirds - The Jeff Beck Years
DYEAR=1900
DGENRE=Pop
TTITLE0=I'm A Man
TTITLE1=Mr. You're a better Man Than I
TTITLE2=Evil Hearted You
TTITLE3=Still I'm Sad
TTITLE4=Heart Full Of Soul
TTITLE5=Train Kept'A Rolling
TTITLE6=Stroll On
TTITLE7=Someone To Love
TTITLE8=Shapes Of Things
TTITLE9=Questa Volta
TTITLE10=Jeff's Blues
TTITLE11=Paff .. Bum
TTITLE12=Pounds And Stomps
TTITLE13=New York City Blues
EXTD=
EXTT0=
EXTT1=
EXTT2=
EXTT3=
EXTT4=
EXTT5=
EXTT6=
EXTT7=
EXTT8=
EXTT9=
EXTT10=
EXTT11=
EXTT12=
EXTT13=
PLAYORDER=
